PathFileType	4	(X/Y/Z)	/Users/itak/Documents/Research/Walk-IL/dataset/trc/00557_00009.trc
DataRate	CameraRate	NumFrames	NumMarkers	Units	OrigDataRate	OrigDataStartFrame	OrigNumFrames
100.000000	100.000000	4	53	mm	100.000000	144	385
Frame#	Time	RPSI			LPSI			L3			STRN			T10			C7			CLAV			RBAK			LBAK			LSHO			LUPA			LAEL			LAOL			LWTS			LWPS			LFRA			LIFD			LHPS			LHTS			RSHO			RUPA			RAEL			RAOL			RWTS			RWPS			RFRA			RIFD			RHTS			RHPS			RBHD			LFHD			RFHD			LBHD			LHIP			RHIP			RASI			LASI			LKNE			LTHI			LANK			LTIP			LTOE			LMT1			LMT5			LHEE			RKNE			RTHI			RANK			RTIP			RTOE			RMT1			RMT5			RHEE			
		X1	Y1	Z1	X2	Y2	Z2	X3	Y3	Z3	X4	Y4	Z4	X5	Y5	Z5	X6	Y6	Z6	X7	Y7	Z7	X8	Y8	Z8	X9	Y9	Z9	X10	Y10	Z10	X11	Y11	Z11	X12	Y12	Z12	X13	Y13	Z13	X14	Y14	Z14	X15	Y15	Z15	X16	Y16	Z16	X17	Y17	Z17	X18	Y18	Z18	X19	Y19	Z19	X20	Y20	Z20	X21	Y21	Z21	X22	Y22	Z22	X23	Y23	Z23	X24	Y24	Z24	X25	Y25	Z25	X26	Y26	Z26	X27	Y27	Z27	X28	Y28	Z28	X29	Y29	Z29	X30	Y30	Z30	X31	Y31	Z31	X32	Y32	Z32	X33	Y33	Z33	X34	Y34	Z34	X35	Y35	Z35	X36	Y36	Z36	X37	Y37	Z37	X38	Y38	Z38	X39	Y39	Z39	X40	Y40	Z40	X41	Y41	Z41	X42	Y42	Z42	X43	Y43	Z43	X44	Y44	Z44	X45	Y45	Z45	X46	Y46	Z46	X47	Y47	Z47	X48	Y48	Z48	X49	Y49	Z49	X50	Y50	Z50	X51	Y51	Z51	X52	Y52	Z52	X53	Y53	Z53	

145	1.44	-1403.606811523438	1002.183349609375	-434.7976684570312	-1344.90771484375	1010.092590332031	-555.502685546875	-1355.542114257812	1105.102661132812	-495.640625	-1108.69970703125	1255.76318359375	-394.5272827148438	-1339.048828125	1229.244506835938	-498.6851501464844	-1253.802978515625	1492.33544921875	-459.459228515625	-1108.444946289062	1367.736572265625	-396.3023986816406	-1374.297729492188	1384.0556640625	-414.5603942871094	-1252.848022460938	1441.623779296875	-559.98095703125	-1125.741333007812	1449.57080078125	-587.554443359375	-1105.339111328125	1327.84326171875	-669.3590698242188	-1077.461059570312	1108.449951171875	-691.8689575195312	-1179.316772460938	1096.119506835938	-697.8861694335938	-995.813720703125	902.6063232421875	-557.1065673828125	-994.52734375	858.142333984375	-632.7337646484375	-1045.401611328125	1028.28515625	-672.2738037109375	-976.8993530273438	744.8360595703125	-517.0524291992188	-977.6105346679688	806.1040649414062	-607.3283081054688	-954.7984619140625	833.7081298828125	-548.6738891601562	-1272.716918945312	1453.35986328125	-294.7518615722656	-1327.377075195312	1395.244506835938	-243.3107604980469	-1389.68212890625	1110.8779296875	-209.8778076171875	-1435.26953125	1101.100341796875	-253.0749816894531	-1272.359741210938	880.9373168945312	-209.3056793212891	-1338.362548828125	864.7872314453125	-161.3419799804688	-1389.171752929688	1054.826293945312	-200.9125366210938	-1269.533935546875	713.2518920898438	-196.6933288574219	-1252.125610351562	793.7730712890625	-177.2321624755859	-1321.80419921875	792.59130859375	-149.7641143798828	-1174.805297851562	1655.90673828125	-350.3300170898438	-979.6058959960938	1645.789306640625	-423.9660339355469	-1045.892333984375	1647.27978515625	-294.7479858398438	-1093.766479492188	1650.836669921875	-494.7007751464844	-1181.453491210938	921.6509399414062	-628.743896484375	-1335.714477539062	925.5110473632812	-273.2997741699219	-1236.969482421875	952.119384765625	-299.6838073730469	-1125.249633789062	941.96875	-551.408447265625	-1212.329467773438	476.8717346191406	-543.9005126953125	-1184.396118164062	640.8204345703125	-581.0482788085938	-1377.5078125	32.94800186157227	-598.1942138671875	-1314.190673828125	240.16064453125	-589.3084716796875	-1222.013305664062	59.70064544677734	-450.4088745117188	-1301.345825195312	47.289794921875	-453.3334045410156	-1265.680419921875	48.18804931640625	-551.9722290039062	-1464.619140625	19.32904052734375	-582.5477294921875	-1118.062255859375	528.6883544921875	-246.6299896240234	-1248.985961914062	792.2283935546875	-250.1275329589844	-1344.729858398438	108.6627655029297	-318.8099670410156	-1147.297119140625	385.2867736816406	-264.5831298828125	-1127.6767578125	91.72934722900391	-285.4158630371094	-1173.533203125	88.86902618408203	-344.8955383300781	-1228.545288085938	97.98647308349609	-257.3907775878906	-1378.672119140625	100.2208557128906	-387.3363342285156	
146	1.45	-1400.19775390625	1001.844970703125	-431.7543640136719	-1342.434204101562	1010.282592773438	-552.7991943359375	-1352.140991210938	1105.243530273438	-493.0032043457031	-1103.25244140625	1253.703979492188	-392.2127990722656	-1333.42138671875	1228.53369140625	-496.2568054199219	-1246.615234375	1491.207275390625	-457.179931640625	-1102.2109375	1365.713623046875	-393.6597900390625	-1367.762329101562	1383.630615234375	-412.5851745605469	-1245.713500976562	1440.559448242188	-557.7470703125	-1118.469116210938	1447.849487304688	-584.8330688476562	-1098.03125	1326.134521484375	-666.5804443359375	-1070.432861328125	1106.857543945312	-688.5593872070312	-1172.113647460938	1094.186401367188	-695.5723876953125	-988.7847900390625	903.74755859375	-550.2462768554688	-986.5958251953125	858.0737915039062	-625.1446533203125	-1038.131469726562	1027.23388671875	-667.7468872070312	-969.4054565429688	747.02734375	-507.3509826660156	-969.5691528320312	806.5220947265625	-598.6986083984375	-947.2459106445312	835.3456420898438	-540.4047241210938	-1266.199584960938	1452.49853515625	-292.4980773925781	-1321.60595703125	1394.902587890625	-241.3785400390625	-1387.518188476562	1111.295288085938	-208.7854461669922	-1433.0986328125	1102.033447265625	-252.1501159667969	-1271.396362304688	880.9072875976562	-208.3219909667969	-1337.678100585938	864.819091796875	-160.8601684570312	-1387.458374023438	1055.23583984375	-199.9046020507812	-1269.176391601562	713.7817993164062	-196.9062347412109	-1251.355102539062	793.9154663085938	-176.1026000976562	-1321.24267578125	792.6544189453125	-149.1820983886719	-1167.671020507812	1653.92919921875	-347.5441284179688	-972.5181884765625	1643.921875	-421.2292175292969	-1038.73828125	1645.249633789062	-291.9649353027344	-1086.614990234375	1649.071411132812	-491.9074401855469	-1180.01513671875	921.6925048828125	-627.8995361328125	-1330.844848632812	924.5615844726562	-270.8197021484375	-1232.451171875	950.612060546875	-298.1831665039062	-1123.194702148438	941.1471557617188	-550.7625732421875	-1211.708374023438	476.6356811523438	-543.4949340820312	-1183.273193359375	640.5006713867188	-580.531005859375	-1377.92578125	33.04315948486328	-598.3137817382812	-1314.286376953125	240.2435607910156	-589.3169555664062	-1222.477661132812	60.97425842285156	-450.7948913574219	-1301.882690429688	47.93887710571289	-453.4982299804688	-1266.21240234375	48.78455352783203	-552.1238403320312	-1464.963256835938	19.13700485229492	-582.7318115234375	-1108.156616210938	531.0476684570312	-243.3883972167969	-1243.456665039062	792.3187866210938	-247.7984466552734	-1333.033325195312	109.8007736206055	-313.4181213378906	-1136.334106445312	387.5429992675781	-260.8304138183594	-1115.776611328125	93.98399353027344	-281.1773986816406	-1161.880249023438	90.75238037109375	-340.4241333007812	-1216.513916015625	99.72362518310547	-252.6084899902344	-1367.333984375	101.1689910888672	-381.7658386230469	
147	1.46	-1396.484375	1001.2275390625	-428.5283508300781	-1339.7880859375	1010.45263671875	-549.927978515625	-1348.538452148438	1105.330200195312	-490.1531066894531	-1097.608520507812	1251.513549804688	-389.8513793945312	-1327.584228515625	1227.666259765625	-493.6283874511719	-1239.243530273438	1489.934814453125	-454.8105163574219	-1095.76708984375	1363.551025390625	-390.9967651367188	-1361.010986328125	1383.0712890625	-410.3841247558594	-1238.456298828125	1439.34033203125	-555.4237060546875	-1111.07861328125	1445.950927734375	-582.0816650390625	-1090.637573242188	1324.218139648438	-663.7359619140625	-1063.23388671875	1105.08349609375	-685.106201171875	-1164.802490234375	1092.080810546875	-693.15283203125	-981.6229858398438	904.8755493164062	-543.1351318359375	-978.4495849609375	857.9769287109375	-617.2607421875	-1030.689086914062	1026.030883789062	-663.0645141601562	-961.700439453125	749.2477416992188	-497.3018188476562	-961.394287109375	806.9264526367188	-589.7158203125	-939.5679321289062	836.99658203125	-531.8387451171875	-1259.369750976562	1451.542114257812	-290.1211853027344	-1315.49755859375	1394.495483398438	-239.2606201171875	-1385.113525390625	1111.710083007812	-207.5326690673828	-1430.694213867188	1102.997680664062	-251.0355072021484	-1270.393920898438	880.7420043945312	-207.306396484375	-1336.976806640625	864.769775390625	-160.3372192382812	-1385.53271484375	1055.626953125	-198.760986328125	-1268.963623046875	714.1692504882812	-197.0617523193359	-1250.616821289062	793.9387817382812	-174.9948425292969	-1320.764770507812	792.6049194335938	-148.6102905273438	-1160.362426757812	1651.822143554688	-344.7559509277344	-965.2365112304688	1641.921020507812	-418.4281005859375	-1031.406494140625	1643.092529296875	-289.1273803710938	-1079.255737304688	1647.169799804688	-489.0856018066406	-1178.439575195312	921.718994140625	-626.9568481445312	-1325.749755859375	923.42431640625	-268.239990234375	-1227.712646484375	948.8965454101562	-296.5476989746094	-1120.998291015625	940.2780151367188	-550.0401000976562	-1211.1220703125	476.3190612792969	-543.1571044921875	-1182.095825195312	640.1622924804688	-580.0869750976562	-1378.392822265625	33.12856292724609	-598.4747924804688	-1314.405029296875	240.3218231201172	-589.3787231445312	-1222.852661132812	62.11337661743164	-451.3383483886719	-1302.326171875	48.53929901123047	-453.742431640625	-1266.708862304688	49.32003784179688	-552.38818359375	-1465.318725585938	18.92662239074707	-582.9011840820312	-1098.3603515625	533.2588500976562	-240.0252227783203	-1237.815063476562	792.2117309570312	-245.3606567382812	-1321.25048828125	110.7123184204102	-307.8779907226562	-1125.433837890625	389.649169921875	-256.9124450683594	-1103.813110351562	96.0576171875	-276.7222900390625	-1150.105712890625	92.452392578125	-335.7658081054688	-1204.413330078125	101.2606964111328	-247.6539001464844	-1355.8935546875	101.8787002563477	-376.0534973144531	
148	1.47	-1392.4296875	1000.336853027344	-425.115478515625	-1336.930297851562	1010.588745117188	-546.897216796875	-1344.668823242188	1105.314331054688	-487.0805358886719	-1091.766357421875	1249.20166015625	-387.4378662109375	-1321.53466796875	1226.640014648438	-490.8008422851562	-1231.710327148438	1488.516967773438	-452.3482971191406	-1089.125122070312	1361.260498046875	-388.3133544921875	-1354.056518554688	1382.36572265625	-407.9482116699219	-1231.096923828125	1437.967529296875	-553.0167236328125	-1103.588134765625	1443.879150390625	-579.3059692382812	-1083.176513671875	1322.08740234375	-660.8258056640625	-1055.862915039062	1103.120361328125	-681.5077514648438	-1157.376342773438	1089.779174804688	-690.613525390625	-974.3322143554688	905.974609375	-535.8111572265625	-970.1275634765625	857.8323364257812	-609.111083984375	-1023.087097167969	1024.677368164062	-658.2266235351562	-953.7971801757812	751.4739379882812	-486.9832153320312	-953.1162109375	807.3098754882812	-580.4203491210938	-931.7843017578125	838.6416625976562	-523.0178833007812	-1252.244750976562	1450.483032226562	-287.6124877929688	-1309.055541992188	1394.0087890625	-236.9511413574219	-1382.424194335938	1112.096923828125	-206.0938262939453	-1428.009521484375	1103.973022460938	-249.7213439941406	-1269.339965820312	880.4129638671875	-206.2572174072266	-1336.244750976562	864.6217651367188	-159.7637786865234	-1383.364990234375	1055.98095703125	-197.4441375732422	-1268.919067382812	714.383056640625	-197.1407775878906	-1249.900268554688	793.8123779296875	-173.9120483398438	-1320.376586914062	792.4115600585938	-148.0407257080078	-1152.883178710938	1649.601806640625	-341.9706115722656	-957.7606201171875	1639.782104492188	-415.5676574707031	-1023.90380859375	1640.810791015625	-286.2488708496094	-1071.701293945312	1645.131225585938	-486.2427673339844	-1176.689331054688	921.7095947265625	-625.9063720703125	-1320.415283203125	922.1060180664062	-265.5673522949219	-1222.737426757812	946.9773559570312	-294.7889099121094	-1118.6220703125	939.3422241210938	-549.2420654296875	-1210.560302734375	475.9070434570312	-542.8917846679688	-1180.86181640625	639.784423828125	-579.7279663085938	-1378.900756835938	33.19979095458984	-598.6785278320312	-1314.539916992188	240.3881225585938	-589.4974365234375	-1223.157958984375	63.07732391357422	-452.0146179199219	-1302.672485351562	49.09759140014648	-454.0804138183594	-1267.168334960938	49.77483749389648	-552.7723388671875	-1465.687377929688	18.70130729675293	-583.0486450195312	-1088.66162109375	535.3021850585938	-236.5729370117188	-1232.078735351562	791.902587890625	-242.8290557861328	-1309.4462890625	111.4259643554688	-302.2395629882812	-1114.613037109375	391.5899658203125	-252.8642425537109	-1091.848510742188	97.91236114501953	-272.0799255371094	-1138.274658203125	93.95802307128906	-330.9423217773438	-1192.321044921875	102.5988006591797	-242.5522308349609	-1344.3974609375	102.3753890991211	-370.2492370605469	
